<svg xmlns="http://www.w3.org/2000/svg" xml:space="preserve" width="1000" height="1000" style="enable-background:new 0 0 1000 1000"><style>.st0{fill-rule:evenodd;clip-rule:evenodd;fill:#73a4ce}</style><g id="Bridge"><path d="M500 37.52c255.42 0 462.48 207.06 462.48 462.48 0 41.84-5.57 82.39-15.98 120.94l-335.4-335.4.09 62.94 319.73 319.73a460.595 460.595 0 0 1-34.73 70.47L611.1 453.59l.09 62.94 259.72 259.72a466.48 466.48 0 0 1-46.4 53.24L611.1 616.08l.09 62.94 180.14 180.14a463.001 463.001 0 0 1-62.43 42.76l-117.8-117.8.09 62.94L687.13 923a459.566 459.566 0 0 1-113.51 33.62V108.35l-79.85 31.25v-102c2.07-.02 4.15-.08 6.23-.08zm-6.24 924.91a469.429 469.429 0 0 0 36.11-.91v-282.9l-36.12 36.11v247.7h.01zm0-310.54 36.12-36.11v-99.64l-36.12 36.11v99.64zm0-162.5 36.12-36.12v-98.25l-36.12 36.12v98.25zm0-161.1 36.12-36.12V270.7c0-19.87-16.25-36.12-36.12-36.12v93.71zm0-188.69-79.86 31.25v74.82l-59.84 59.84V61.05c44-14.62 90.94-22.8 139.69-23.44V139.6h.01zm0 94.99c-19.87 0-36.12 16.25-36.12 36.12v93.7l36.12-36.12v-93.7zm0 156.55v98.25l-36.12 36.12v-98.25l36.12-36.12zm0 161.11v99.64L457.65 688v-99.64l36.11-36.11zm0 162.49v247.69c-12.16-.16-24.2-.79-36.12-1.88v-209.7l36.12-36.11zM354.07 938.97v-84.54l59.84-59.83v159.87a458.638 458.638 0 0 1-59.84-15.5zm0-147.39v-99.64l59.84-59.84v99.64l-59.84 59.84zm0-162.5v-98.25L413.91 471v98.25l-59.84 59.83zm0-161.1v-99.63l59.84-59.84v99.63l-59.84 59.84zm0-162.47L50.5 609.08C42.04 574.1 37.52 537.58 37.52 500c0-204.42 132.64-377.84 316.55-438.95v244.46zm0 62.85L65.02 657.41a460.9 460.9 0 0 0 31.29 68.34l257.76-257.76v-99.63zm0 162.48L120.53 764.38a465.35 465.35 0 0 0 44.16 54.09l189.38-189.38v-98.25zm0 161.1v99.64L253.99 891.66a463.721 463.721 0 0 1-57.18-42.46l157.26-157.26zm0 162.49-59.84 59.84a459.648 459.648 0 0 0 59.84 24.7v-84.54z" class="st0"/><path d="M500 0c276.14 0 500 223.86 500 500s-223.86 500-500 500v-20.83c264.64 0 479.17-214.53 479.17-479.17S764.64 20.83 500 20.83V0zm0 1000C223.86 1000 0 776.14 0 500S223.86 0 500 0v20.83C235.36 20.83 20.83 235.36 20.83 500S235.36 979.17 500 979.17V1000z" class="st0"/></g></svg>